 <svg  width="28" height="28" viewBox="0 0 16 16" fill="currentColor" xmlns="http://www.w3.org/2000/svg">
      <path fill-rule="evenodd" clip-rule="evenodd"
        d="M8 0C8.27614 0 8.5 0.223858 8.5 0.5V4C8.5 4.27614 8.27614 4.5 8 4.5C7.72386 4.5 7.5 4.27614 7.5 4V0.5C7.5 0.223858 7.72386 0 8 0Z"
        fill="currentColor"></path>
      <path opacity="0.5" fill-rule="evenodd" clip-rule="evenodd"
        d="M8 11.5C8.27614 11.5 8.5 11.7239 8.5 12V15.5C8.5 15.7761 8.27614 16 8 16C7.72386 16 7.5 15.7761 7.5 15.5V12C7.5 11.7239 7.72386 11.5 8 11.5Z"
        fill="currentColor"></path>
      <path opacity="0.05" fill-rule="evenodd" clip-rule="evenodd"
        d="M12.0001 1.07177C12.2392 1.20984 12.3212 1.51564 12.1831 1.75478L10.4331 4.78587C10.295 5.02502 9.98923 5.10696 9.75008 4.96888C9.51094 4.83081 9.429 4.52502 9.56707 4.28587L11.3171 1.25478C11.4551 1.01564 11.7609 0.933699 12.0001 1.07177Z"
        fill="currentColor"></path>
      <path opacity="0.6" fill-rule="evenodd" clip-rule="evenodd"
        d="M6.25008 11.0311C6.48923 11.1691 6.57117 11.4749 6.4331 11.7141L4.6831 14.7452C4.54502 14.9843 4.23923 15.0662 4.00008 14.9282C3.76094 14.7901 3.679 14.4843 3.81707 14.2452L5.56707 11.2141C5.70514 10.9749 6.01094 10.893 6.25008 11.0311Z"
        fill="currentColor"></path>
      <path opacity="0.1" fill-rule="evenodd" clip-rule="evenodd"
        d="M14.929 4.00002C15.0671 4.23917 14.9852 4.54496 14.746 4.68304L11.7149 6.43303C11.4758 6.57111 11.17 6.48917 11.0319 6.25002C10.8938 6.01088 10.9758 5.70508 11.2149 5.56701L14.246 3.81701C14.4852 3.67894 14.791 3.76088 14.929 4.00002Z"
        fill="currentColor"></path>
      <path opacity="0.7" fill-rule="evenodd" clip-rule="evenodd"
        d="M4.96809 9.75002C5.10616 9.98917 5.02422 10.295 4.78508 10.433L1.75399 12.183C1.51484 12.3211 1.20905 12.2392 1.07098 12C0.932906 11.7609 1.01484 11.4551 1.25399 11.317L4.28508 9.56701C4.52422 9.42894 4.83002 9.51088 4.96809 9.75002Z"
        fill="currentColor"></path>
      <path opacity="0.2" fill-rule="evenodd" clip-rule="evenodd"
        d="M11.5 8C11.5 7.72386 11.7239 7.5 12 7.5H15.5C15.7761 7.5 16 7.72386 16 8C16 8.27614 15.7761 8.5 15.5 8.5H12C11.7239 8.5 11.5 8.27614 11.5 8Z"
        fill="currentColor"></path>
      <path opacity="0.8" fill-rule="evenodd" clip-rule="evenodd"
        d="M0 8C0 7.72386 0.223858 7.5 0.5 7.5H4C4.27614 7.5 4.5 7.72386 4.5 8C4.5 8.27614 4.27614 8.5 4 8.5H0.5C0.223858 8.5 0 8.27614 0 8Z"
        fill="currentColor"></path>
      <path opacity="0.3" fill-rule="evenodd" clip-rule="evenodd"
        d="M11.0319 9.75002C11.17 9.51088 11.4758 9.42894 11.7149 9.56701L14.746 11.317C14.9852 11.4551 15.0671 11.7609 14.929 12C14.791 12.2392 14.4852 12.3211 14.246 12.183L11.2149 10.433C10.9758 10.295 10.8938 9.98917 11.0319 9.75002Z"
        fill="currentColor"></path>
      <path opacity="0.9" fill-rule="evenodd" clip-rule="evenodd"
        d="M1.07098 4.00002C1.20905 3.76088 1.51484 3.67894 1.75399 3.81701L4.78508 5.56701C5.02422 5.70508 5.10616 6.01088 4.96809 6.25002C4.83002 6.48917 4.52422 6.57111 4.28508 6.43304L1.25399 4.68304C1.01484 4.54496 0.932906 4.23917 1.07098 4.00002Z"
        fill="currentColor"></path>
      <path opacity="0.4" fill-rule="evenodd" clip-rule="evenodd"
        d="M9.75008 11.0315C9.98923 10.8934 10.295 10.9754 10.4331 11.2145L12.1831 14.2456C12.3212 14.4847 12.2392 14.7905 12.0001 14.9286C11.7609 15.0667 11.4551 14.9847 11.3171 14.7456L9.56707 11.7145C9.429 11.4754 9.51094 11.1696 9.75008 11.0315Z"
        fill="currentColor"></path>
      <path opacity="0.95" fill-rule="evenodd" clip-rule="evenodd"
        d="M4.00008 1.07134C4.23923 0.933272 4.54502 1.01521 4.6831 1.25436L6.4331 4.28544C6.57117 4.52459 6.48923 4.83039 6.25008 4.96846C6.01094 5.10653 5.70514 5.02459 5.56707 4.78544L3.81707 1.75436C3.679 1.51521 3.76094 1.20941 4.00008 1.07134Z"
        fill="currentColor"></path>
    </svg>