<svg width="200" height="200" viewBox="0 0 200 200" fill="none" xmlns="http://www.w3.org/2000/svg">
<g clip-path="url(#clip0_21238_1604)">
<g opacity="0.6">
<mask id="mask0_21238_1604" style="mask-type:alpha" maskUnits="userSpaceOnUse" x="93" y="172" width="54" height="4">
<path d="M93.6985 172.421L141.99 172.825H146.435L93.6985 175.654V172.421Z" fill="#2538BF"/>
</mask>
<g mask="url(#mask0_21238_1604)">
<ellipse cx="55.0617" cy="58.3905" rx="55.0617" ry="58.3905" transform="matrix(0.999225 0.0393531 -0.0364319 0.999336 49.4446 123.157)" fill="url(#paint0_linear_21238_1604)"/>
</g>
</g>
<path d="M57.3459 25.8004C57.6388 18.8194 52.0584 13 45.0713 13C38.4575 13 33.0307 18.2359 32.7939 24.8455L31.2231 68.688C30.7395 82.187 36.5915 95.1365 47.0427 103.694L69.1336 121.782V85.7213C60.6179 81.5417 55.377 72.7247 55.7747 63.247L57.3459 25.8004Z" fill="#66CC84"/>
<path d="M104.212 63.3203C104.212 56.5093 109.734 50.9879 116.545 50.9879C123.356 50.9879 128.877 56.5093 128.877 63.3203V83.1431C128.877 93.6771 124.562 103.751 116.937 111.019L92.9619 133.869V97.7576L93.9229 96.9543C100.444 91.5035 104.212 83.4419 104.212 74.9428V63.3203Z" fill="#66CC84"/>
<mask id="mask1_21238_1604" style="mask-type:alpha" maskUnits="userSpaceOnUse" x="31" y="13" width="39" height="109">
<path d="M57.3458 25.8004C57.6387 18.8194 52.0583 13 45.0713 13C38.4574 13 33.0306 18.2359 32.7938 24.8455L31.223 68.688C30.7394 82.187 36.5914 95.1365 47.0426 103.694L69.1335 121.782V85.7213C60.6178 81.5417 55.3769 72.7247 55.7746 63.247L57.3458 25.8004Z" fill="#0E72ED"/>
</mask>
<g mask="url(#mask1_21238_1604)">
<rect x="25.0875" y="172.595" width="125.593" height="126.74" transform="rotate(-91.0172 25.0875 172.595)" fill="url(#paint1_linear_21238_1604)"/>
<mask id="mask2_21238_1604" style="mask-type:alpha" maskUnits="userSpaceOnUse" x="32" y="6" width="41" height="152">
<path d="M32.1821 26.2958C32.1821 15.1383 41.227 6.09338 52.3845 6.09338C63.542 6.09338 72.5869 15.1383 72.5869 26.2958V157.352H32.1821V26.2958Z" fill="#0E72ED"/>
</mask>
<g mask="url(#mask2_21238_1604)">
<path d="M38.4569 6.09331V157.421" stroke="white" stroke-width="0.125494"/>
<path d="M34.1901 6.09334V157.421" stroke="white" stroke-width="0.125494"/>
<path d="M42.7238 6.09331V157.421" stroke="white" stroke-width="0.125494"/>
<path d="M46.9904 6.09331V157.421" stroke="white" stroke-width="0.125494"/>
<path d="M51.2572 6.09331V157.421" stroke="white" stroke-width="0.125494"/>
<path d="M64.9894 6.43874V157.766" stroke="white" stroke-width="0.125494"/>
<path d="M55.524 6.09331V157.421" stroke="white" stroke-width="0.125494"/>
<path d="M60.0134 6.09331V157.421" stroke="white" stroke-width="0.125494"/>
</g>
</g>
<mask id="mask3_21238_1604" style="mask-type:alpha" maskUnits="userSpaceOnUse" x="92" y="50" width="37" height="84">
<path d="M104.212 63.3195C104.212 56.5085 109.734 50.9871 116.545 50.9871C123.356 50.9871 128.877 56.5085 128.877 63.3195V83.1423C128.877 93.6763 124.562 103.751 116.936 111.018L92.9618 133.869V97.7568L93.9228 96.9535C100.444 91.5027 104.212 83.4411 104.212 74.942V63.3195Z" fill="#0E72ED"/>
</mask>
<g mask="url(#mask3_21238_1604)">
<rect x="119.86" y="33.0294" width="59.7438" height="102.911" transform="rotate(45.5932 119.86 33.0294)" fill="url(#paint2_linear_21238_1604)"/>
<path d="M101.027 44.0803V195.407" stroke="white" stroke-width="0.125494"/>
<path d="M97.1644 44.0802V195.407" stroke="white" stroke-width="0.125494"/>
<path d="M105.294 44.0803V195.407" stroke="white" stroke-width="0.125494"/>
<path d="M109.561 44.0803V195.407" stroke="white" stroke-width="0.125494"/>
<path d="M113.827 44.0803V195.407" stroke="white" stroke-width="0.125494"/>
<path d="M127.559 44.4257V195.753" stroke="white" stroke-width="0.125494"/>
<path d="M118.094 44.0803V195.407" stroke="white" stroke-width="0.125494"/>
<path d="M122.583 44.0803V195.407" stroke="white" stroke-width="0.125494"/>
</g>
<path d="M67.0613 38.7278C67.0613 30.8126 73.4778 24.3962 81.3929 24.3962C89.308 24.3962 95.7245 30.8126 95.7245 38.7278V175.655H67.0613V38.7278Z" fill="#66CC84"/>
<mask id="mask4_21238_1604" style="mask-type:alpha" maskUnits="userSpaceOnUse" x="67" y="24" width="29" height="152">
<path d="M67.0613 38.7273C67.0613 30.8122 73.4778 24.3957 81.3929 24.3957C89.308 24.3957 95.7245 30.8122 95.7245 38.7273V175.654H67.0613V38.7273Z" fill="#0E72ED"/>
</mask>
<g mask="url(#mask4_21238_1604)">
<path d="M92.4439 178.418C80.8929 175.864 72.8202 137.27 68.108 100.152C67.8964 98.4847 65.3319 98.5328 65.2016 100.209L59.1187 178.418H92.4439Z" fill="#2538BF"/>
</g>
<mask id="mask5_21238_1604" style="mask-type:alpha" maskUnits="userSpaceOnUse" x="66" y="24" width="35" height="178">
<path d="M66.8998 41.0687C66.8998 31.8229 74.395 24.3277 83.6408 24.3277C92.8866 24.3277 100.382 31.8229 100.382 41.0687V201.408H66.8998V41.0687Z" fill="#0E72ED"/>
</mask>
<g mask="url(#mask5_21238_1604)">
<path d="M74.2428 24.3276V201.408" stroke="white" stroke-width="0.146851"/>
<path d="M69.2495 24.3275V201.408" stroke="white" stroke-width="0.146851"/>
<path d="M79.2356 24.3276V201.408" stroke="white" stroke-width="0.146851"/>
<path d="M84.2285 24.3276V201.408" stroke="white" stroke-width="0.146851"/>
<path d="M89.2213 24.3276V201.408" stroke="white" stroke-width="0.146851"/>
<path d="M94.2147 24.3276V201.408" stroke="white" stroke-width="0.146851"/>
</g>
<path d="M40.551 169.889C39.4152 166.867 40.9447 163.496 43.9672 162.36L98.7613 141.77L102.874 152.715L48.0802 173.305C45.0577 174.441 41.6868 172.912 40.551 169.889Z" fill="#648CFE"/>
<path fill-rule="evenodd" clip-rule="evenodd" d="M139.896 171.343C161.156 171.122 178.212 153.708 177.991 132.448C177.771 111.188 160.357 94.1316 139.096 94.3524C117.836 94.5733 100.78 111.987 101.001 133.248C101.222 154.508 118.636 171.564 139.896 171.343ZM139.811 163.131C156.536 162.957 169.953 149.259 169.779 132.534C169.605 115.809 155.906 102.392 139.182 102.565C122.457 102.739 109.04 116.438 109.213 133.163C109.387 149.888 123.086 163.305 139.811 163.131Z" fill="#648CFE"/>
<g opacity="0.4">
<mask id="mask6_21238_1604" style="mask-type:alpha" maskUnits="userSpaceOnUse" x="40" y="141" width="63" height="33">
<path d="M40.5507 169.889C39.4149 166.867 40.9444 163.496 43.9669 162.36L98.761 141.77L102.874 152.715L48.0799 173.305C45.0574 174.441 41.6865 172.912 40.5507 169.889Z" fill="#648CFE"/>
</mask>
<g mask="url(#mask6_21238_1604)">
<rect x="38.3831" y="164.623" width="64.3158" height="11.9849" transform="rotate(-20.5951 38.3831 164.623)" fill="url(#paint3_linear_21238_1604)"/>
</g>
</g>
<rect x="99.6336" y="141.215" width="2.39539" height="11.8071" rx="1.1977" transform="rotate(-20.5951 99.6336 141.215)" fill="#2538BF"/>
<rect x="97.6711" y="142.145" width="2.39539" height="11.8071" rx="1.1977" transform="rotate(-20.5951 97.6711 142.145)" fill="#2538BF"/>
</g>
<defs>
<linearGradient id="paint0_linear_21238_1604" x1="27.5309" y1="109.482" x2="93.276" y2="12.2596" gradientUnits="userSpaceOnUse">
<stop stop-color="#2538BF"/>
<stop offset="0.927083" stop-color="#2538BF" stop-opacity="0"/>
</linearGradient>
<linearGradient id="paint1_linear_21238_1604" x1="56.4859" y1="291.413" x2="126.458" y2="182.677" gradientUnits="userSpaceOnUse">
<stop stop-color="#2538BF"/>
<stop offset="0.927083" stop-color="#2538BF" stop-opacity="0"/>
</linearGradient>
<linearGradient id="paint2_linear_21238_1604" x1="134.796" y1="129.509" x2="196.949" y2="72.9253" gradientUnits="userSpaceOnUse">
<stop stop-color="#2538BF"/>
<stop offset="0.927083" stop-color="#2538BF" stop-opacity="0"/>
</linearGradient>
<linearGradient id="paint3_linear_21238_1604" x1="54.462" y1="175.859" x2="56.1658" y2="161.521" gradientUnits="userSpaceOnUse">
<stop stop-color="#2538BF"/>
<stop offset="0.927083" stop-color="#2538BF" stop-opacity="0"/>
</linearGradient>
<clipPath id="clip0_21238_1604">
<rect width="200" height="200" fill="white"/>
</clipPath>
</defs>
</svg>
