<svg width="13" height="13" viewBox="0 0 13 13" fill="none" xmlns="http://www.w3.org/2000/svg">
<g id="MS SharePoint">
<path id="Vector" d="M6.1606 7.29276C8.03637 7.29276 9.55698 5.77215 9.55698 3.89638C9.55698 2.02061 8.03637 0.5 6.1606 0.5C4.28483 0.5 2.76422 2.02061 2.76422 3.89638C2.76422 5.77215 4.28483 7.29276 6.1606 7.29276Z" fill="#036C70"/>
<path id="Vector_2" d="M9.55662 10.0095C11.1822 10.0095 12.5 8.69167 12.5 7.06611C12.5 5.44055 11.1822 4.12277 9.55662 4.12277C7.93106 4.12277 6.61328 5.44055 6.61328 7.06611C6.61328 8.69167 7.93106 10.0095 9.55662 10.0095Z" fill="#1A9BA1"/>
<path id="Vector_3" d="M6.61326 12.0474C7.98873 12.0474 9.10378 10.9323 9.10378 9.55686C9.10378 8.18139 7.98873 7.06635 6.61326 7.06635C5.23778 7.06635 4.12274 8.18139 4.12274 9.55686C4.12274 10.9323 5.23778 12.0474 6.61326 12.0474Z" fill="#37C6D0"/>
<path id="Vector_4" opacity="0.2" d="M6.83153 3.83895V9.58983C6.83202 9.61918 6.82908 9.64848 6.8228 9.67716C6.80292 9.79526 6.74174 9.90246 6.65017 9.97964C6.55859 10.0568 6.44258 10.099 6.32282 10.0985H4.18097C4.16569 10.0265 4.15259 9.95444 4.14386 9.88021C4.13288 9.8079 4.12632 9.73498 4.12421 9.66188C4.12202 9.62694 4.12202 9.59201 4.12202 9.55708C4.12208 9.06452 4.26812 8.58304 4.5417 8.17345C4.81528 7.76386 5.20411 7.44455 5.65908 7.25585C4.85409 7.13531 4.11911 6.72984 3.5878 6.11319C3.0565 5.49655 2.76417 4.70968 2.764 3.89571C2.76336 3.70617 2.77943 3.51695 2.81203 3.33023H6.32282C6.38965 3.33012 6.45586 3.3432 6.51763 3.36872C6.5794 3.39425 6.63553 3.43171 6.68279 3.47897C6.73005 3.52624 6.76752 3.58236 6.79304 3.64413C6.81857 3.70591 6.83165 3.77211 6.83153 3.83895Z" fill="black"/>
<path id="Vector_5" opacity="0.1" d="M7.04986 3.83895V9.15317C7.04804 9.34543 6.97086 9.5293 6.8349 9.66525C6.69895 9.80121 6.51508 9.87839 6.32282 9.88021H4.14386C4.13288 9.8079 4.12632 9.73499 4.12421 9.66188C4.12202 9.62695 4.12202 9.59201 4.12202 9.55708C4.12208 9.06453 4.26812 8.58305 4.5417 8.17346C4.81528 7.76387 5.20411 7.44456 5.65908 7.25586C4.85409 7.13532 4.11911 6.72985 3.5878 6.1132C3.0565 5.49655 2.76417 4.70969 2.764 3.89572C2.76336 3.70618 2.77943 3.51696 2.81203 3.33024C2.82295 3.25601 2.83823 3.18396 2.8557 3.11191H6.32282C6.51543 3.1126 6.69995 3.18942 6.83615 3.32562C6.97235 3.46182 7.04917 3.64634 7.04986 3.83895Z" fill="black"/>
<path id="Vector_6" opacity="0.2" d="M6.83153 3.83895V9.15316C6.83164 9.21999 6.81856 9.2862 6.79304 9.34797C6.76751 9.40974 6.73005 9.46587 6.68278 9.51313C6.63552 9.56039 6.5794 9.59786 6.51763 9.62338C6.45585 9.64891 6.38965 9.66199 6.32281 9.66187H4.12421C4.12202 9.62694 4.12202 9.59201 4.12202 9.55707C4.12208 9.06452 4.26812 8.58304 4.5417 8.17345C4.81527 7.76386 5.20411 7.44455 5.65908 7.25585C4.85409 7.13531 4.1191 6.72984 3.5878 6.11319C3.0565 5.49654 2.76417 4.70968 2.764 3.89571C2.76336 3.70617 2.77943 3.51695 2.81203 3.33023H6.32281C6.38965 3.33012 6.45585 3.3432 6.51763 3.36872C6.5794 3.39425 6.63552 3.43171 6.68278 3.47897C6.73005 3.52624 6.76751 3.58236 6.79304 3.64413C6.81856 3.70591 6.83164 3.77211 6.83153 3.83895Z" fill="black"/>
<path id="Vector_7" opacity="0.1" d="M6.61319 3.83895V9.15316C6.61331 9.21999 6.60023 9.2862 6.57471 9.34797C6.54918 9.40974 6.51171 9.46587 6.46445 9.51313C6.41719 9.56039 6.36106 9.59786 6.29929 9.62338C6.23752 9.64891 6.17132 9.66199 6.10448 9.66187H4.12421C4.12202 9.62694 4.12202 9.59201 4.12202 9.55707C4.12208 9.06452 4.26812 8.58304 4.5417 8.17345C4.81527 7.76386 5.20411 7.44455 5.65908 7.25585C4.85409 7.13531 4.1191 6.72984 3.5878 6.11319C3.0565 5.49654 2.76417 4.70968 2.764 3.89571C2.76336 3.70617 2.77943 3.51695 2.81203 3.33023H6.10448C6.17132 3.33012 6.23752 3.3432 6.29929 3.36872C6.36106 3.39425 6.41719 3.43171 6.46445 3.47897C6.51171 3.52624 6.54918 3.58236 6.57471 3.64413C6.60023 3.70591 6.61331 3.77211 6.61319 3.83895Z" fill="black"/>
<path id="Vector_8" d="M6.10394 3.33023H1.00937C0.728053 3.33023 0.5 3.55828 0.5 3.8396V8.93417C0.5 9.21549 0.728053 9.44354 1.00937 9.44354H6.10394C6.38526 9.44354 6.61331 9.21549 6.61331 8.93417V3.8396C6.61331 3.55828 6.38526 3.33023 6.10394 3.33023Z" fill="#038387"/>
<path id="Vector_9" d="M2.76406 6.40655C2.65243 6.33262 2.55922 6.23411 2.49158 6.11857C2.42582 5.99784 2.39307 5.8619 2.3966 5.72448C2.39084 5.53851 2.45362 5.35692 2.57302 5.21423C2.6985 5.07144 2.86069 4.96572 3.042 4.90857C3.24868 4.84042 3.46518 4.80679 3.6828 4.80901C3.96893 4.79852 4.25466 4.83858 4.52687 4.92734V5.52339C4.4085 5.45162 4.27956 5.39894 4.14479 5.36728C3.9987 5.33132 3.84876 5.31328 3.6983 5.31357C3.53975 5.30787 3.38222 5.34124 3.23959 5.41073C3.18567 5.43396 3.13972 5.47243 3.10737 5.52142C3.07502 5.57041 3.05768 5.62778 3.0575 5.68649C3.0568 5.75917 3.08444 5.82926 3.13457 5.88189C3.19412 5.94366 3.2645 5.99398 3.3422 6.03036C3.42924 6.07359 3.55915 6.13094 3.73193 6.20241C3.75101 6.20844 3.76962 6.21588 3.7876 6.22468C3.95795 6.29133 4.12229 6.37241 4.27885 6.46702C4.39746 6.54016 4.49699 6.64044 4.56923 6.75959C4.6436 6.89434 4.67983 7.04682 4.67403 7.20062C4.68245 7.3915 4.62408 7.57934 4.50897 7.73182C4.39395 7.87207 4.24018 7.97534 4.06685 8.02876C3.86319 8.09269 3.65061 8.12364 3.43718 8.12046C3.24601 8.12126 3.05514 8.10555 2.86667 8.07351C2.70731 8.04809 2.55169 8.00307 2.40337 7.93946V7.30979C2.54536 7.41108 2.70402 7.48668 2.87213 7.53314C3.03926 7.58524 3.21301 7.61303 3.38805 7.61567C3.5501 7.62598 3.71186 7.59162 3.85572 7.51633C3.90477 7.48817 3.9453 7.44726 3.97301 7.39795C4.00072 7.34864 4.01459 7.29276 4.01314 7.23621C4.01344 7.1964 4.0058 7.15693 3.99065 7.12012C3.97551 7.0833 3.95316 7.04988 3.92493 7.02181C3.85386 6.95212 3.77166 6.89479 3.68171 6.85216C3.57822 6.80005 3.42524 6.73157 3.22277 6.64671C3.06221 6.58208 2.90847 6.50163 2.76384 6.40655H2.76406Z" fill="white"/>
</g>
</svg>
