<svg width="200" height="200" viewBox="0 0 200 200" fill="none" xmlns="http://www.w3.org/2000/svg">
<g clip-path="url(#clip0_1345_17143)">
<g clip-path="url(#clip1_1345_17143)">
<mask id="mask0_1345_17143" style="mask-type:alpha" maskUnits="userSpaceOnUse" x="101" y="130" width="119" height="40">
<path d="M138.924 130.471H219.069C219.859 130.471 220.034 131.581 219.282 131.824L101.571 169.952L108.78 151.829L138.924 130.471Z" fill="black"/>
</mask>
<g mask="url(#mask0_1345_17143)">
<circle cx="138.114" cy="143.081" r="53.1357" transform="rotate(40.747 138.114 143.081)" fill="url(#paint0_linear_1345_17143)"/>
</g>
<path d="M46.5244 86.4597L55.0201 105.039C55.439 105.956 56.3219 106.573 57.3264 106.651L95.4885 109.643C96.2949 109.706 96.9842 109.069 96.9842 108.26V77.3984L46.5244 86.4597Z" fill="#0E72ED"/>
<path d="M152.032 84.518V103.102C152.032 104.634 150.79 105.877 149.258 105.877H98.3725C97.6063 105.877 96.9852 105.256 96.9852 104.489V77.3984L152.032 84.518Z" fill="#4793F1"/>
<path d="M46.5244 86.459V146.731C46.5244 147.857 47.2052 148.872 48.2474 149.299L100.261 170.599V103.287L46.5244 86.459Z" fill="#4793F1"/>
<path d="M46.5244 86.459V116.978C46.5244 118.095 47.1935 119.102 48.2224 119.535L85.5138 135.234C86.0944 135.478 86.7618 135.302 87.1163 134.781C88.8565 132.225 93.7566 124.234 95.0182 113.643C95.8742 106.456 100.261 103.287 100.261 103.287L46.5244 86.459Z" fill="#2538BF"/>
<path d="M152.032 84.5176V146.758C152.032 147.871 151.367 148.876 150.343 149.311L100.262 170.599V103.287L152.032 84.5176Z" fill="#0E72ED"/>
<path d="M152.032 84.5176V120.238C152.032 120.548 151.831 120.819 151.532 120.903C149.517 121.467 141.769 123.62 134.994 125.293C128.498 126.897 118.872 132.476 115.72 134.368C115.119 134.728 114.357 134.59 113.966 134.009C112.442 131.744 108.844 125.603 106.815 115.585C105.378 108.489 101.572 103.287 101.572 103.287L152.032 84.5176Z" fill="#2538BF"/>
<path d="M46.5245 86.459L100.261 103.287C100.261 103.287 94.5605 107.232 92.397 113.643C89.5151 122.182 84.6054 126.214 83.4644 127.062C83.311 127.176 83.1277 127.212 82.942 127.167C80.7431 126.631 66.1333 122.978 57.6649 118.497C48.4905 113.643 32.1074 109.759 32.1074 109.759C32.1074 109.759 38.0053 103.934 39.9713 95.5202C41.9372 89.0479 46.5245 86.459 46.5245 86.459Z" fill="#E7F1FD"/>
<path d="M152.032 84.5176L100.262 103.287C100.262 103.287 106.159 106.523 107.47 112.349C108.74 117.993 111.241 124.853 114.972 129.395C115.18 129.648 115.539 129.71 115.825 129.55C122.365 125.88 127.48 122.004 141.547 117.875C155.964 113.643 154.43 111.92 164.365 108.104C164.365 108.104 157.93 98.1094 156.619 92.2843C155.308 86.4593 152.032 84.5176 152.032 84.5176Z" fill="#A8CCF8"/>
</g>
<path d="M152.396 42.2086C143.509 74.0999 121.116 65.0891 128.94 56.5283C136.763 47.9674 151.35 62.8254 119.453 78.0804" stroke="#0E72ED" stroke-width="1.41459" stroke-linecap="round" stroke-dasharray="2.63 2.63"/>
<path d="M173.035 23.0336L163.597 18C163.597 18 159.082 22.287 155.418 24.292C153.198 25.5062 148.497 26.1795 148.497 26.1795L158.43 34.3591C158.43 34.3591 164.925 33.1691 168.002 30.5839C170.715 28.304 173.035 23.0336 173.035 23.0336Z" fill="#FFBF39"/>
<path d="M0.378491 165.451C0.258402 165.468 0.186928 165.319 0.272635 165.233L7.05883 158.447L23.1016 159.731L37.5933 161.621C37.6989 161.635 37.7414 161.762 37.6608 161.832C36.4694 162.864 30.1668 168.073 24.385 168.073C19.2513 166.79 15.6084 166.496 10.9091 165.506C6.90101 164.661 1.79413 165.258 0.378491 165.451Z" fill="#2538BF"/>
<path d="M1.2832 160.693L8.34203 152.351C8.34203 152.351 17.1719 151.112 21.818 153.634C27.2197 156.567 35.2939 158.126 35.2939 158.126C35.2939 158.126 34.0105 165.185 25.6682 168.394C20.5345 167.11 19.2511 165.827 14.1174 161.977C10.2672 159.089 1.2832 160.693 1.2832 160.693Z" fill="#FFBF39"/>
<path d="M171.27 174.494C171.129 174.385 171.153 174.167 171.313 174.088L176.769 171.359L198.997 175.225C198.997 175.225 198.73 177.012 197.547 178.124C195.326 180.213 190.782 181.024 189.333 181.507C187.929 181.249 186.433 180.057 186.433 180.057C183.534 179.641 178.569 179.17 174.353 176.675C173.287 176.043 171.878 174.968 171.27 174.494Z" fill="#2538BF"/>
<path d="M185.467 167.494L192.232 167.977L197.064 162.662C197.064 162.662 198.23 163.58 198.514 165.561C198.649 166.513 199.382 169.765 199.48 171.843C199.56 173.541 198.997 175.226 198.997 175.226L189.332 178.608L185.467 167.494Z" fill="#C28030"/>
<path d="M186.82 157.714C186.937 157.487 187.206 157.389 187.441 157.487C188.883 158.089 193.727 160.167 196.681 162.152C199.289 163.905 196.508 170.011 196.137 170.794C196.115 170.841 196.131 170.895 196.176 170.921C196.812 171.296 201.066 173.954 198.491 176.562C195.885 179.201 190.439 181.16 189.437 181.505C189.333 181.54 189.223 181.539 189.12 181.501C188.19 181.156 183.345 179.323 180.349 177.5C177.55 175.798 173.721 172.498 172.58 171.497C172.435 171.369 172.487 171.131 172.671 171.074C174.023 170.651 178.278 169.195 180.683 166.935C183.151 164.615 186.038 159.222 186.82 157.714Z" fill="#FFBF39"/>
<path d="M58.5098 71.475C63.8003 69.9373 71.2233 66.7272 75.0022 65.1895C83.316 68.265 83.5632 72.5384 88.9574 77.876C90.7527 79.6524 90.8604 85.4879 90.8604 85.4879C90.8604 85.4879 87.6888 91.8311 73.0993 93.0998C71.8306 87.3909 72.54 83.3821 69.2933 79.7789C66.0466 76.1758 61.5329 76.8572 58.5098 71.475Z" fill="#2538BF"/>
<path d="M58.5098 71.4746C63.8003 69.9368 71.3582 66.0924 75.1372 64.5547C83.4509 67.6302 84.1031 71.5192 89.4973 76.8568C91.2926 78.6332 94.032 82.2389 94.032 82.2389C94.032 82.2389 86.4741 88.39 75.1372 89.9277C73.6256 86.8522 72.3376 83.5355 69.0909 79.9323C65.8442 76.3291 61.5329 76.8568 58.5098 71.4746Z" fill="#FFBF39"/>
</g>
<defs>
<linearGradient id="paint0_linear_1345_17143" x1="111.546" y1="189.575" x2="169.995" y2="97.9155" gradientUnits="userSpaceOnUse">
<stop stop-color="#2538BF"/>
<stop offset="0.927083" stop-color="#2538BF" stop-opacity="0"/>
</linearGradient>
<clipPath id="clip0_1345_17143">
<rect width="200" height="200" fill="white"/>
</clipPath>
<clipPath id="clip1_1345_17143">
<rect width="167.893" height="93.1108" fill="white" transform="translate(32.1074 77.3984)"/>
</clipPath>
</defs>
</svg>
