<svg width="201" height="200" viewBox="0 0 201 200" fill="none" xmlns="http://www.w3.org/2000/svg">
    <g clip-path="url(#clip0_1417_232153)">
        <g opacity="0.6">
            <mask id="mask0_1417_232153" style="mask-type:alpha" maskUnits="userSpaceOnUse" x="94" y="172" width="53" height="4">
                <path d="M94.1986 172.422L142.49 172.826H146.935L94.1986 175.655V172.422Z" fill="#2538BF"/>
            </mask>
            <g mask="url(#mask0_1417_232153)">
                <ellipse cx="55.0617" cy="58.3905" rx="55.0617" ry="58.3905" transform="matrix(0.999225 0.0393531 -0.0364319 0.999336 49.9446 123.158)" fill="url(#paint0_linear_1417_232153)"/>
            </g>
        </g>
        <path d="M57.8459 25.8004C58.1388 18.8194 52.5584 13 45.5714 13C38.9575 13 33.5307 18.2359 33.2939 24.8455L31.7231 68.688C31.2395 82.187 37.0915 95.1365 47.5427 103.694L69.6336 121.782V85.7213C61.1179 81.5417 55.877 72.7247 56.2747 63.247L57.8459 25.8004Z" fill="#66CC84"/>
        <path d="M104.712 63.3207C104.712 56.5097 110.234 50.9883 117.045 50.9883C123.856 50.9883 129.377 56.5097 129.377 63.3206V83.1435C129.377 93.6775 125.062 103.752 117.437 111.019L93.4618 133.87V97.758L94.4229 96.9547C100.944 91.5039 104.712 83.4423 104.712 74.9432V63.3207Z" fill="#66CC84"/>
        <mask id="mask1_1417_232153" style="mask-type:alpha" maskUnits="userSpaceOnUse" x="31" y="13" width="39" height="109">
            <path d="M57.8458 25.8004C58.1387 18.8194 52.5584 13 45.5713 13C38.9574 13 33.5306 18.2359 33.2938 24.8455L31.723 68.688C31.2394 82.187 37.0914 95.1365 47.5426 103.694L69.6335 121.782V85.7213C61.1179 81.5417 55.8769 72.7247 56.2746 63.247L57.8458 25.8004Z" fill="#0E72ED"/>
        </mask>
        <g mask="url(#mask1_1417_232153)">
            <rect x="25.5877" y="172.596" width="125.593" height="126.74" transform="rotate(-91.0172 25.5877 172.596)" fill="url(#paint1_linear_1417_232153)"/>
            <mask id="mask2_1417_232153" style="mask-type:alpha" maskUnits="userSpaceOnUse" x="32" y="6" width="42" height="152">
                <path d="M32.6823 26.2961C32.6823 15.1387 41.7272 6.09375 52.8847 6.09375C64.0421 6.09375 73.087 15.1387 73.087 26.2961V157.353H32.6823V26.2961Z" fill="#0E72ED"/>
            </mask>
            <g mask="url(#mask2_1417_232153)">
                <path d="M38.957 6.09375V157.421" stroke="white" stroke-width="0.125494"/>
                <path d="M34.6901 6.09375V157.421" stroke="white" stroke-width="0.125494"/>
                <path d="M43.2237 6.09375V157.421" stroke="white" stroke-width="0.125494"/>
                <path d="M47.4905 6.09375V157.421" stroke="white" stroke-width="0.125494"/>
                <path d="M51.7572 6.09375V157.421" stroke="white" stroke-width="0.125494"/>
                <path d="M65.4896 6.43945V157.767" stroke="white" stroke-width="0.125494"/>
                <path d="M56.024 6.09375V157.421" stroke="white" stroke-width="0.125494"/>
                <path d="M60.5136 6.09375V157.421" stroke="white" stroke-width="0.125494"/>
            </g>
        </g>
        <mask id="mask3_1417_232153" style="mask-type:alpha" maskUnits="userSpaceOnUse" x="93" y="50" width="37" height="84">
            <path d="M104.712 63.3187C104.712 56.5077 110.234 50.9863 117.045 50.9863C123.856 50.9863 129.377 56.5077 129.377 63.3187V83.1415C129.377 93.6756 125.062 103.75 117.437 111.018L93.4618 133.868V97.7561L94.4229 96.9528C100.944 91.502 104.712 83.4403 104.712 74.9412V63.3187Z" fill="#0E72ED"/>
        </mask>
        <g mask="url(#mask3_1417_232153)">
            <rect x="120.36" y="33.0293" width="59.7438" height="102.911" transform="rotate(45.5932 120.36 33.0293)" fill="url(#paint2_linear_1417_232153)"/>
            <path d="M101.527 44.0801V195.407" stroke="white" stroke-width="0.125494"/>
            <path d="M97.6646 44.0801V195.407" stroke="white" stroke-width="0.125494"/>
            <path d="M105.794 44.0801V195.407" stroke="white" stroke-width="0.125494"/>
            <path d="M110.061 44.0801V195.407" stroke="white" stroke-width="0.125494"/>
            <path d="M114.327 44.0801V195.407" stroke="white" stroke-width="0.125494"/>
            <path d="M128.06 44.4258V195.753" stroke="white" stroke-width="0.125494"/>
            <path d="M118.594 44.0801V195.407" stroke="white" stroke-width="0.125494"/>
            <path d="M123.084 44.0801V195.407" stroke="white" stroke-width="0.125494"/>
        </g>
        <path d="M67.5614 38.7281C67.5614 30.813 73.9779 24.3965 81.893 24.3965C89.8081 24.3965 96.2246 30.813 96.2246 38.7281V175.655H67.5614V38.7281Z" fill="#66CC84"/>
        <mask id="mask4_1417_232153" style="mask-type:alpha" maskUnits="userSpaceOnUse" x="67" y="24" width="30" height="152">
            <path d="M67.5614 38.7281C67.5614 30.813 73.9779 24.3965 81.893 24.3965C89.8081 24.3965 96.2246 30.813 96.2246 38.7281V175.655H67.5614V38.7281Z" fill="#0E72ED"/>
        </mask>
        <g mask="url(#mask4_1417_232153)">
            <path d="M92.9439 178.417C81.3929 175.864 73.3201 137.27 68.608 100.152C68.3964 98.4846 65.8319 98.5327 65.7016 100.208L59.6186 178.417H92.9439Z" fill="#2538BF"/>
        </g>
        <mask id="mask5_1417_232153" style="mask-type:alpha" maskUnits="userSpaceOnUse" x="67" y="24" width="34" height="178">
            <path d="M67.3999 41.0691C67.3999 31.8233 74.8951 24.3281 84.1409 24.3281C93.3867 24.3281 100.882 31.8233 100.882 41.0691V201.408H67.3999V41.0691Z" fill="#0E72ED"/>
        </mask>
        <g mask="url(#mask5_1417_232153)">
            <path d="M74.7428 24.3281V201.408" stroke="white" stroke-width="0.146851"/>
            <path d="M69.7497 24.3281V201.408" stroke="white" stroke-width="0.146851"/>
            <path d="M79.7356 24.3281V201.408" stroke="white" stroke-width="0.146851"/>
            <path d="M84.7285 24.3281V201.408" stroke="white" stroke-width="0.146851"/>
            <path d="M89.7213 24.3281V201.408" stroke="white" stroke-width="0.146851"/>
            <path d="M94.7146 24.3281V201.408" stroke="white" stroke-width="0.146851"/>
        </g>
        <path d="M41.051 169.889C39.9152 166.866 41.4447 163.495 44.4672 162.36L99.2613 141.769L103.374 152.714L48.5802 173.305C45.5577 174.441 42.1868 172.911 41.051 169.889Z" fill="#648CFE"/>
        <path fill-rule="evenodd" clip-rule="evenodd" d="M140.396 171.343C161.656 171.122 178.712 153.708 178.491 132.448C178.271 111.187 160.857 94.1313 139.596 94.3521C118.336 94.5729 101.28 111.987 101.501 133.247C101.722 154.508 119.136 171.564 140.396 171.343ZM140.311 163.131C157.036 162.957 170.453 149.258 170.279 132.533C170.105 115.809 156.406 102.391 139.682 102.565C122.957 102.739 109.54 116.438 109.713 133.162C109.887 149.887 123.586 163.305 140.311 163.131Z" fill="#648CFE"/>
        <g opacity="0.4">
            <mask id="mask6_1417_232153" style="mask-type:alpha" maskUnits="userSpaceOnUse" x="40" y="141" width="64" height="33">
                <path d="M41.0507 169.889C39.9149 166.866 41.4444 163.495 44.4669 162.36L99.261 141.769L103.374 152.714L48.5799 173.305C45.5574 174.441 42.1865 172.911 41.0507 169.889Z" fill="#648CFE"/>
            </mask>
            <g mask="url(#mask6_1417_232153)">
                <rect x="38.8831" y="164.623" width="64.3158" height="11.9849" transform="rotate(-20.5951 38.8831 164.623)" fill="url(#paint3_linear_1417_232153)"/>
            </g>
        </g>
        <rect x="100.134" y="141.215" width="2.39539" height="11.8071" rx="1.1977" transform="rotate(-20.5951 100.134 141.215)" fill="#2538BF"/>
        <rect x="98.1712" y="142.145" width="2.39539" height="11.8071" rx="1.1977" transform="rotate(-20.5951 98.1712 142.145)" fill="#2538BF"/>
    </g>
    <defs>
        <linearGradient id="paint0_linear_1417_232153" x1="27.5309" y1="109.482" x2="93.276" y2="12.2596" gradientUnits="userSpaceOnUse">
            <stop stop-color="#2538BF"/>
            <stop offset="0.927083" stop-color="#2538BF" stop-opacity="0"/>
        </linearGradient>
        <linearGradient id="paint1_linear_1417_232153" x1="56.986" y1="291.414" x2="126.958" y2="182.678" gradientUnits="userSpaceOnUse">
            <stop stop-color="#2538BF"/>
            <stop offset="0.927083" stop-color="#2538BF" stop-opacity="0"/>
        </linearGradient>
        <linearGradient id="paint2_linear_1417_232153" x1="135.296" y1="129.509" x2="197.449" y2="72.9252" gradientUnits="userSpaceOnUse">
            <stop stop-color="#2538BF"/>
            <stop offset="0.927083" stop-color="#2538BF" stop-opacity="0"/>
        </linearGradient>
        <linearGradient id="paint3_linear_1417_232153" x1="54.962" y1="175.859" x2="56.6658" y2="161.521" gradientUnits="userSpaceOnUse">
            <stop stop-color="#2538BF"/>
            <stop offset="0.927083" stop-color="#2538BF" stop-opacity="0"/>
        </linearGradient>
        <clipPath id="clip0_1417_232153">
            <rect width="200" height="200" fill="white" transform="translate(0.5)"/>
        </clipPath>
    </defs>
</svg>
